<svg width="112" height="116" viewBox="0 0 112 116" fill="none" xmlns="http://www.w3.org/2000/svg">
<path d="M56 23.1098C71.4587 23.1098 85.4046 24.6297 95.4805 29.9828C100.513 32.6563 104.576 36.2838 107.383 41.1557C110.19 46.0285 111.75 52.1618 111.75 59.8598C111.75 90.6496 86.7899 115.61 56 115.61C25.2101 115.61 0.25 90.6496 0.25 59.8598C0.25 52.1618 1.80978 46.0285 4.61719 41.1557C7.42405 36.2838 11.4874 32.6563 16.5195 29.9828C26.5954 24.6297 40.5413 23.1098 56 23.1098Z" fill="#F3CE49" stroke="black" stroke-width="0.5"/>
<path d="M58.8022 22.6186L58.9027 23.027L59.3223 22.9979L82.7749 21.3411L66.0431 28.5848L65.004 29.0342L66.0367 29.4989L86.4735 38.6972L62.3875 34.4869L61.6401 34.3561L61.8152 35.095L65.0693 48.8535L50.7741 35.4735L50.5359 35.2501L50.2356 35.3786L32.2254 43.0622L39.9898 31.2466L40.4071 30.6122L39.66 30.4794L15.5856 26.1978L37.9369 24.5442L39.0662 24.4607L38.2435 23.683L24.9973 11.1534L46.4698 20.7316L46.8542 20.9025L47.0883 20.5531L55.2815 8.33616L58.8022 22.6186Z" fill="#F3CE49" stroke="#1E1E1E"/>
<path d="M13.0004 76.382C11.4928 75.9231 10.1582 74.949 9.07268 73.5155C7.98719 72.0819 7.1721 70.2169 6.67395 68.0268C6.17579 65.8368 6.00433 63.3647 6.16935 60.7517C6.33436 58.1387 6.83263 55.4359 7.6357 52.7977C8.43877 50.1594 9.53091 47.6374 10.8498 45.3756C12.1686 43.1138 13.6884 41.1565 15.3222 39.6155C16.9561 38.0744 18.6721 36.9798 20.3722 36.3942C21.2088 36.106 22.0335 35.9438 22.835 35.9081C24.1733 35.8485 24.9147 37.2411 24.5245 38.5227C24.1344 39.8043 22.7452 40.4863 21.4179 40.6678C20.9791 40.7279 20.5327 40.8356 20.0819 40.9908C18.7746 41.4412 17.455 42.2829 16.1986 43.468C14.9421 44.653 13.7735 46.1581 12.7593 47.8974C11.7451 49.6367 10.2203 51.3676 9.60279 53.3964C8.98524 55.4252 8.48185 57.945 8.35495 59.9544C8.22806 61.9638 8.04856 63.1506 8.43164 64.8347C8.65757 65.8279 8.64971 66.6609 8.77649 67.4034C8.94863 68.4115 9.36525 69.3986 9.59506 70.3952C10.1451 72.7805 11.5289 75.9093 12.4623 76.1934L13.0004 76.382Z" fill="#1E1E1E"/>
</svg>
